<svg width="1280" height="469" viewBox="0 0 1280 469" fill="none" xmlns="http://www.w3.org/2000/svg">
<path d="M0 172.5C9.83333 168.833 30 166.6 32 187L41 180.5H53.5C57 176.667 66.5 170.4 76.5 176H80.5V83.5L117.5 63H200L214.5 74.5H217.5V69L210.5 63L217.5 59C219.167 44 229.4 14.4 257 16V12.5H255.5V7H257V3.5H264.5V7H266V12.5H264.5V16C275.667 15.6666 299.1 23.8 303.5 59V63H307.5C309.667 60.3333 316.5 55 326.5 55V49L328 47H331L333 49V55C340.5 54.8333 356.9 62.1 362.5 92.5H366.5V98.5H362.5V188.5C368.667 183.667 383.2 179.2 392 200C409.5 201.333 438.9 214.2 416.5 255L437.5 267.5V256.5L460 244.5H487V239H488.5V235.5H493.5V225C494.5 221.833 498.9 215.5 508.5 215.5V211H506.5V204.5H508.5L509 201H514.5V204.5H517V211H514.5V215.5C519.5 215.167 529.6 216.6 530 225V235.5H535.5V244.5H572.5L591 256.5V259.5H589V272C595.667 271.333 610.4 272.8 616 284L634.5 274L639 180L647 170L673 0L685.5 146.5L708 0L724.5 170L731 182.5V212.5L805 221L817 170L824 223L848 231.5L852 221L854.5 251.5H860V258.5H900.5L904 267.5H897.5V275.5H902C914.167 264.833 941.9 254.9 955.5 300.5H970.5V299H966.5V236C968.833 233 976.1 227.9 986.5 231.5V227L1053 233H1100V236H1107.5V299H1114V236H1119V233H1176L1229.5 222.5V231C1232.17 228.5 1240.5 225 1252.5 231V293.5H1261.5V291.5H1275V264H1280V471H0V172.5Z" fill="#71002E"/>
</svg>
